#!OML:ASF H:\Terrain\Patient Classification 1\Terrain2\Thursday\justin.ASF
:FULLY-SPECIFIED
:DEGREES
2156
root 7.31357 18.0422 10.6171 337.349 87.3817 -17.029
lowerback 5.61554 1.06275 -1.36498
upperback 2.10441 1.39348 0.864809
thorax -1.03619 0.706935 1.56394
lowerneck -13.3095 -1.05589 -6.49685
upperneck 41.2658 2.16918 1.38673
head 17.3305 0.74567 2.41187
rclavicle -3.77536e-015 5.46658e-015
rhumerus -35.9899 -10.4188 -77.7904
rradius 29.4239
rwrist -9.04711
rhand -17.5814 11.4794
rfingers 7.12502
rthumb 8.67427 -18.3224
lclavicle -3.77536e-015 5.46658e-015
lhumerus -35.2898 10.4611 81.1062
lradius 31.1783
lwrist 3.27215
lhand -17.9367 21.4225
lfingers 7.12502
lthumb 8.33144 51.2382
rfemur -25.859 -8.20582 11.1607
rtibia 113.504
rfoot -1.91062 12.4737
rtoes 2.51191
lfemur 9.22204 1.81103 -23.7118
ltibia -1.59028e-015
lfoot 1.85578 -2.87222
ltoes 14.138
2157
root 7.37007 18.0625 10.6213 345.983 87.6566 -8.33416
lowerback 5.87856 0.940766 -2.05502
upperback 2.16963 1.19215 0.879918
thorax -1.12117 0.605771 1.97683
lowerneck -13.5237 -0.974653 -6.52372
upperneck 41.244 2.35997 1.25453
head 17.3673 0.793328 2.3912
rclavicle 2.34504e-015 4.62174e-015
rhumerus -35.7574 -9.66388 -78.0078
rradius 30.132
rwrist -9.45035
rhand -17.6816 11.7562
rfingers 7.12502
rthumb 8.57758 -18.0496
lclavicle 2.34504e-015 4.62174e-015
lhumerus -35.1768 9.66252 81.6852
lradius 32.1749
lwrist 4.09456
lhand -18.759 20.7801
lfingers 7.12502
lthumb 7.53781 50.6258
rfemur -28.0408 -9.84532 10.1003
rtibia 116.337
rfoot -4.54516 11.9365
rtoes 2.03265
lfemur 9.47045 1.76055 -24.1936
ltibia -2.38542e-015
lfoot 1.99192 -2.99256
ltoes 14.066
2158
root 7.43102 18.0851 10.6184 351.201 87.8014 -3.13674
lowerback 6.03786 0.848326 -2.43524
upperback 2.21182 1.04828 1.00799
thorax -1.16754 0.533584 2.33083
lowerneck -13.6195 -0.898622 -6.84067
upperneck 41.0984 2.56874 1.23618
head 17.2982 0.823055 2.47081
rclavicle 8.07563e-016 -3.18055e-015
rhumerus -35.6143 -8.62242 -78.1412
rradius 31.0794
rwrist -10.1168
rhand -18.1446 11.7348
rfingers 7.12502
rthumb 8.1308 -18.0888
lclavicle 8.07563e-016 -3.18055e-015
lhumerus -35.0962 9.20413 82.246
lradius 33.1811
lwrist 4.46891
lhand -18.8419 20.0212
lfingers 7.12502
lthumb 7.45773 49.8697
rfemur -30.297 -11.3539 9.33313
rtibia 118.992
rfoot -6.65729 11.6996
rtoes 6.24883
lfemur 9.65822 1.74633 -24.471
ltibia -2.46493e-014
lfoot 1.90988 -3.17733
ltoes 12.8145
2159
root 7.48873 18.1049 10.6142 356.484 87.9978 2.21661
lowerback 6.3129 0.727462 -2.74622
upperback 2.2835 0.867008 1.07042
thorax -1.24075 0.443672 2.5809
lowerneck -13.701 -0.811077 -7.08454
upperneck 40.9515 2.72849 1.31122
head 17.223 0.857404 2.57049
rclavicle -3.48494e-015 7.15625e-015
rhumerus -35.4348 -7.91596 -78.2763
rradius 32.0407
rwrist -10.6326
rhand -18.3869 11.5975
rfingers 7.12502
rthumb 7.89696 -18.235
lclavicle -3.48494e-015 7.15625e-015
lhumerus -34.8859 8.71934 82.6093
lradius 34.0773
lwrist 4.74281
lhand -18.8715 19.7047
lfingers 7.12502
lthumb 7.42916 49.5543
rfemur -32.5437 -13.0645 8.55138
rtibia 121.539
rfoot -8.33508 11.9894
rtoes 9.19161
lfemur 9.94848 1.66522 -24.7172
ltibia 7.95139e-016
lfoot 1.58427 -3.26239
ltoes 13.3548
2160
root 7.53385 18.1169 10.6149 350.731 88.2313 -3.46132
lowerback 6.78605 0.567093 -2.62746
upperback 2.30506 0.653622 1.12
thorax -1.46689 0.341811 2.57789
lowerneck -13.7398 -0.727312 -7.04183
upperneck 40.8587 2.82199 1.31704
head 17.1738 0.900187 2.57737
rclavicle 3.85145e-015 9.34288e-015
rhumerus -35.2275 -7.6785 -78.449
rradius 32.758
rwrist -10.8977
rhand -18.2545 11.766
rfingers 7.12502
rthumb 8.02469 -18.0616
lclavicle 3.85145e-015 9.34288e-015
lhumerus -34.6829 7.88731 82.8287
lradius 34.9709
lwrist 5.16571
lhand -19.1194 19.8812
lfingers 7.12502
lthumb 7.1899 49.7391
rfemur -34.8664 -15.1151 8.41885
rtibia 123.951
rfoot -10.2853 11.9139
rtoes 4.33443
lfemur 10.1701 1.49429 -24.4798
ltibia 2.22639e-014
lfoot 1.33801 -3.27312
ltoes 15.4103
2161
root 7.58038 18.1263 10.6122 332.904 88.2173 -21.4363
lowerback 7.02247 0.489829 -2.10626
upperback 2.27078 0.585957 1.29059
thorax -1.62665 0.311566 2.4644
lowerneck -13.7458 -0.743823 -7.03829
upperneck 40.7134 2.77459 1.29757
head 17.0968 0.877556 2.55252
rclavicle -1.75179e-015 6.75868e-015
rhumerus -35.1664 -7.38169 -78.519
rradius 33.6254
rwrist -11.3096
rhand -18.5879 11.6043
rfingers 7.12502
rthumb 7.70297 -18.2354
lclavicle -1.75179e-015 6.75868e-015
lhumerus -34.5693 6.90399 83.2442
lradius 35.9415
lwrist 5.9861
lhand -19.6513 20.1498
lfingers 7.12502
lthumb 6.67645 50.0245
rfemur -37.5039 -16.9631 8.94854
rtibia 126.194
rfoot -11.9216 11.8427
rtoes 1.42331
lfemur 10.1674 1.39808 -23.8683
ltibia 2.06736e-014
lfoot 1.3026 -3.33719
ltoes 17.4398
2162
root 7.64051 18.1365 10.6065 330.114 88.3035 -24.3421
lowerback 7.08469 0.472906 -2.04176
upperback 2.27747 0.568178 1.31545
thorax -1.65297 0.303284 2.45493
lowerneck -13.6759 -0.753113 -6.95531
upperneck 40.463 2.711 1.23258
head 16.9447 0.857143 2.48457
rclavicle -2.88238e-015 -9.54166e-015
rhumerus -35.1508 -7.48714 -78.4802
rradius 34.3942
rwrist -11.6242
rhand -19.561 11.4029
rfingers 7.12502
rthumb 6.76366 -18.4691
lclavicle -2.88238e-015 -9.54166e-015
lhumerus -34.4501 5.96682 83.6018
lradius 36.7963
lwrist 6.65675
lhand -20.3115 20.045
lfingers 7.12502
lthumb 6.03907 49.9389
rfemur -40.1176 -18.5318 8.67947
rtibia 128.283
rfoot -12.8279 13.0586
rtoes 8.29327
lfemur 10.2487 1.36047 -23.8733
ltibia -1.51076e-014
lfoot 1.27635 -3.33617
ltoes 19.0585
2163
root 7.70086 18.1412 10.6018 340.547 88.6229 -13.8398
lowerback 7.28033 0.352228 -2.43487
upperback 2.37889 0.378483 1.25567
thorax -1.64724 0.208577 2.63055
lowerneck -13.7889 -0.672625 -6.86785
upperneck 40.3013 2.8546 1.05276
head 16.8822 0.900068 2.40713
rclavicle 1.11816e-016 -9.93923e-016
rhumerus -34.9528 -7.35799 -78.5301
rradius 35.1381
rwrist -12.0321
rhand -20.4422 12.0926
rfingers 7.12502
rthumb 5.91295 -17.8049
lclavicle 1.11816e-016 -9.93923e-016
lhumerus -34.332 5.53745 83.6972
lradius 37.697
lwrist 6.80705
lhand -20.2564 19.7699
lfingers 7.12502
lthumb 6.09231 49.6623
rfemur -42.4145 -20.1201 7.91433
rtibia 130.163
rfoot -14.3473 14.2693
rtoes 13.3969
lfemur 10.5416 1.28693 -24.3428
ltibia 5.56597e-015
lfoot 1.16322 -3.2973
ltoes 19.5197
2164
root 7.74567 18.1376 10.6029 358.583 88.9153 4.13725
lowerback 7.55162 0.135231 -3.00438
upperback 2.41821 0.0445608 1.25936
thorax -1.73474 0.0433742 2.98526
lowerneck -14.0048 -0.552842 -6.83336
upperneck 40.209 3.14075 0.753739
head 16.8828 0.972744 2.31526
rclavicle 1.30452e-015 -4.17448e-015
rhumerus -34.7666 -6.46284 -78.7529
rradius 36.3516
rwrist -12.6969
rhand -20.4162 12.7353
rfingers 7.12502
rthumb 5.93799 -17.1615
lclavicle 1.30452e-015 -4.17448e-015
lhumerus -34.3375 5.4137 83.7621
lradius 38.8101
lwrist 7.0621
lhand -20.2228 19.589
lfingers 7.12502
lthumb 6.12473 49.4805
rfemur -45.1145 -22.0527 7.33701
rtibia 131.96
rfoot -16.251 14.9354
rtoes 11.796
lfemur 10.6539 1.15855 -24.8342
ltibia 3.26007e-014
lfoot 1.0163 -3.32798
ltoes 18.8962
2165
root 7.77977 18.1325 10.6142 375.141 89.2108 20.6297
lowerback 8.04328 -0.0276135 -3.46024
upperback 2.36738 -0.219382 1.30963
thorax -2.0371 -0.0810405 3.32227
lowerneck -14.0107 -0.476832 -6.76937
upperneck 40.0311 3.29384 0.534338
head 16.7878 1.01387 2.22479
rclavicle -3.50358e-015 -9.54166e-015
rhumerus -34.6507 -5.97008 -78.8672
rradius 37.2041
rwrist -13.0476
rhand -19.7703 12.7627
rfingers 7.12502
rthumb 6.56157 -17.1157
lclavicle -3.50358e-015 -9.54166e-015
lhumerus -34.3606 5.11748 83.8128
lradius 39.7933
lwrist 7.05945
lhand -19.9458 19.5475
lfingers 7.12502
lthumb 6.39213 49.4311
rfemur -48.1553 -24.3865 7.24252
rtibia 133.625
rfoot -17.8877 15.568
rtoes 8.70345
lfemur 10.6757 0.914427 -25.0651
ltibia -4.21423e-014
lfoot 0.823719 -3.34481
ltoes 18.1752
2166
root 7.83219 18.1378 10.6232 363.636 89.4879 9.26014
lowerback 8.4559 -0.0520265 -3.43755
upperback 2.43961 -0.253596 1.44145
thorax -2.18734 -0.0939828 3.45285
lowerneck -14.0533 -0.544554 -6.85189
upperneck 39.9659 3.20612 0.53776
head 16.7672 0.964555 2.22379
rclavicle -1.06226e-014 1.23246e-014
rhumerus -34.4774 -5.97792 -78.7646
rradius 37.4905
rwrist -13.4354
rhand -19.5628 12.9537
rfingers 7.12502
rthumb 6.76186 -16.9183
lclavicle -1.06226e-014 1.23246e-014
lhumerus -34.0583 4.70361 83.9105
lradius 40.3093
lwrist 6.51262
lhand -19.2735 19.7635
lfingers 7.12502
lthumb 7.04116 49.6264
rfemur -50.6523 -25.8943 7.93171
rtibia 134.783
rfoot -19.539 15.815
rtoes 6.48241
lfemur 11.0327 0.763134 -24.9186
ltibia -1.82882e-014
lfoot 0.495247 -3.31175
ltoes 15.1637
2167
root 7.90323 18.1489 10.6248 318.503 89.5911 -35.7039
lowerback 8.63007 -0.164648 -3.24155
upperback 2.59003 -0.37764 1.65927
thorax -2.11717 -0.157079 3.58202
lowerneck -14.2204 -0.559818 -7.09322
upperneck 39.9849 3.25926 0.571631
head 16.8157 0.948854 2.29406
rclavicle -5.70264e-015 -3.77691e-015
rhumerus -34.2744 -5.68095 -78.6115
rradius 38.0402
rwrist -14.1997
rhand -19.1361 13.014
rfingers 7.12502
rthumb 7.17376 -16.8445
lclavicle -5.70264e-015 -3.77691e-015
lhumerus -33.6079 4.71003 84.017
lradius 40.5159
lwrist 5.945
lhand -19.1889 19.7994
lfingers 7.12502
lthumb 7.12279 49.6595
rfemur -52.75 -26.7583 8.89887
rtibia 135.494
rfoot -21.1295 15.7614
rtoes 3.6771
lfemur 11.5855 0.670005 -24.71
ltibia -2.06736e-014
lfoot 0.18082 -3.27103
ltoes 10.9836
2168
root 7.9735 18.16 10.6189 279.745 89.1606 -74.5084
lowerback 8.65744 -0.329068 -2.7053
upperback 2.63518 -0.539302 1.91799
thorax -2.07517 -0.237946 3.5641
lowerneck -14.2574 -0.493326 -7.14982
upperneck 39.9443 3.38719 0.537435
head 16.7972 0.986599 2.3098
rclavicle 1.63997e-015 -4.37326e-015
rhumerus -34.1526 -5.38297 -78.4642
rradius 38.7734
rwrist -14.9646
rhand -18.4217 12.9267
rfingers 7.12502
rthumb 7.8633 -16.9071
lclavicle 1.63997e-015 -4.37326e-015
lhumerus -33.5254 4.45034 84.175
lradius 41.1518
lwrist 6.0303
lhand -19.1977 19.6825
lfingers 7.12502
lthumb 7.11429 49.5429
rfemur -55.3138 -27.4663 10.4894
rtibia 136.099
rfoot -22.8092 15.3261
rtoes -2.15266
lfemur 11.8713 0.592056 -24.195
ltibia 1.03368e-014
lfoot -0.0937784 -3.18814
ltoes 9.89681
2169
root 8.04204 18.1792 10.6087 275.846 88.1125 -78.7031
lowerback 8.44281 -0.332752 -1.46072
upperback 2.59486 -0.428771 2.11954
thorax -2.01761 -0.182834 3.05559
lowerneck -14.0769 -0.502542 -6.87782
upperneck 39.8422 3.24219 0.565215
head 16.702 0.977569 2.24182
rclavicle 3.32964e-015 2.34566e-014
rhumerus -34.1975 -5.63884 -78.4635
rradius 39.3663
rwrist -15.1194
rhand -19.0019 13.6024
rfingers 7.12502
rthumb 7.30327 -16.2516
lclavicle 3.32964e-015 2.34566e-014
lhumerus -33.4974 3.45315 84.3162
lradius 41.9383
lwrist 6.60647
lhand -19.2502 19.7505
lfingers 7.12502
lthumb 7.06368 49.6126
rfemur -58.5099 -27.0456 13.1083
rtibia 136.549
rfoot -23.8268 14.8085
rtoes -4.84289
lfemur 11.8456 0.695459 -23.108
ltibia 1.66979e-014
lfoot -0.442763 -3.1097
ltoes 9.67488
